<svg xmlns="http://www.w3.org/2000/svg" viewBox="0 0 64 64"><title>Artboard-23</title><g id="Search_Virus" data-name="Search Virus"><path d="M21,30a6.0075,6.0075,0,0,0,5.5089-3.6274L29,27.6182V31a1,1,0,0,0,2,0V27a1,1,0,0,0-.5527-.8945l-3.4662-1.7331C26.9888,24.2486,27,24.1257,27,24V22.7686l2.5542.1992L32.293,25.707a1,1,0,0,0,1.414-1.414l-3-3a.9975.9975,0,0,0-.6289-.29L27,20.7625V19.6182l3.4473-1.7237A1,1,0,0,0,31,17V12a1,1,0,0,0-2,0v4.3818l-2,1V17a1,1,0,0,0-1-1H25a3.9626,3.9626,0,0,0-.7972-2.3722l.659-1.121A.9982.9982,0,0,0,25,12V11a1,1,0,0,0-2,0v.7275l-.3691.6282a3.9167,3.9167,0,0,0-3.2618,0L19,11.7275V11a1,1,0,0,0-2,0v1a.9982.9982,0,0,0,.1382.5068l.659,1.121A3.9626,3.9626,0,0,0,17,16H16a1,1,0,0,0-1,1v.3818l-2-1V12a1,1,0,0,0-2,0v5a1,1,0,0,0,.5527.8945L15,19.6182v1.1443l-3.0781.24a.9975.9975,0,0,0-.6289.29l-3,3a1,1,0,0,0,1.414,1.414l2.7388-2.7392L15,22.7686V24c0,.1257.0112.2486.0189.3724l-3.4662,1.7331A1,1,0,0,0,11,27v4a1,1,0,0,0,2,0V27.6182l2.4911-1.2456A6.0075,6.0075,0,0,0,21,30Zm4-6a3.9958,3.9958,0,0,1-3,3.858V18h3ZM21,14a2.0023,2.0023,0,0,1,2,2H19A2.0023,2.0023,0,0,1,21,14Zm-4,4h3v9.858A3.9958,3.9958,0,0,1,17,24Z" style="fill:#19191c"/><path d="M39,21A18,18,0,1,0,21,39,18.0206,18.0206,0,0,0,39,21ZM5,21A16,16,0,1,1,21,37,16.0183,16.0183,0,0,1,5,21Z" style="fill:#19191c"/><path d="M61.6357,50.2217,46.4316,35.0176l1.293-1.293A1,1,0,0,0,46.3105,32.31l-3.2929,3.293L39.0661,31.652a21.0748,21.0748,0,1,0-7.4138,7.4139l3.9513,3.9516L32.31,46.3105a1,1,0,0,0,1.4141,1.4141l1.293-1.293L50.2217,61.6357a8.0709,8.0709,0,1,0,11.414-11.414ZM2,21A19,19,0,1,1,21,40,19.0216,19.0216,0,0,1,2,21ZM37.957,33.3711,41.5859,37,37,41.5859,33.3721,37.957A21.679,21.679,0,0,0,37.957,33.3711ZM55.9287,62a6.033,6.033,0,0,1-4.293-1.7783L36.4316,45.0176l8.586-8.586L60.2217,51.6357A6.0712,6.0712,0,0,1,55.9287,62Z" style="fill:#19191c"/><path d="M58.1006,58.1a3.1438,3.1438,0,0,1-4.3438.001l-3.6992-3.6992a1,1,0,0,0-1.414,1.414l3.6992,3.7a5.0712,5.0712,0,0,0,7.1718-.0019A1,1,0,0,0,58.1006,58.1Z" style="fill:#19191c"/></g></svg>